<svg x="0" y="0" width="250px" height="46px" overflow="inherit" viewBox="0, 0, 250, 46" preserveAspectRatio="xMidYMid" font-size="0" xml:space="default" xmlns="http://www.w3.org/2000/svg" xmlns:xlink="http://www.w3.org/1999/xlink" xmlns:xml="http://www.w3.org/XML/1998/namespace" version="1.1"><title xml:space="default">UralBank</title><desc xml:space="default">Created with Sketch.</desc><defs xml:space="default"><linearGradient x1="50%" y1="14.1229%" x2="50%" y2="73.51338%" gradientUnits="objectBoundingBox" id="linearGradient-1" xml:space="default"><stop offset="0%" stop-color="#5D1953" stop-opacity="1" xml:space="default" /><stop offset="25%" stop-color="#A50343" stop-opacity="1" xml:space="default" /><stop offset="32%" stop-color="#B20736" stop-opacity="1" xml:space="default" /><stop offset="51%" stop-color="#D11116" stop-opacity="1" xml:space="default" /><stop offset="74%" stop-color="#A50343" stop-opacity="1" xml:space="default" /><stop offset="75%" stop-color="#A20444" stop-opacity="1" xml:space="default" /><stop offset="92%" stop-color="#70134F" stop-opacity="1" xml:space="default" /><stop offset="100%" stop-color="#5D1953" stop-opacity="1" xml:space="default" /></linearGradient><linearGradient x1="27.75289%" y1="67.48733%" x2="67.07784%" y2="10.57205%" gradientUnits="objectBoundingBox" id="linearGradient-2" xml:space="default"><stop offset="0%" stop-color="#E30613" stop-opacity="1" xml:space="default" /><stop offset="5%" stop-color="#D9061B" stop-opacity="1" xml:space="default" /><stop offset="23%" stop-color="#BC0431" stop-opacity="1" xml:space="default" /><stop offset="39%" stop-color="#AB033E" stop-opacity="1" xml:space="default" /><stop offset="50%" stop-color="#A50343" stop-opacity="1" xml:space="default" /><stop offset="55%" stop-color="#9B0645" stop-opacity="1" xml:space="default" /><stop offset="74%" stop-color="#79104D" stop-opacity="1" xml:space="default" /><stop offset="90%" stop-color="#651751" stop-opacity="1" xml:space="default" /><stop offset="100%" stop-color="#5D1953" stop-opacity="1" xml:space="default" /></linearGradient><linearGradient x1="13.4634%" y1="69.95722%" x2="86.3923%" y2="22.62577%" gradientUnits="objectBoundingBox" id="linearGradient-3" xml:space="default"><stop offset="0%" stop-color="#009FE3" stop-opacity="1" xml:space="default" /><stop offset="15%" stop-color="#029CE0" stop-opacity="1" xml:space="default" /><stop offset="25%" stop-color="#0894D7" stop-opacity="1" xml:space="default" /><stop offset="35%" stop-color="#1285C7" stop-opacity="1" xml:space="default" /><stop offset="44%" stop-color="#2170B0" stop-opacity="1" xml:space="default" /><stop offset="52%" stop-color="#345593" stop-opacity="1" xml:space="default" /><stop offset="60%" stop-color="#4A3470" stop-opacity="1" xml:space="default" /><stop offset="65%" stop-color="#5D1953" stop-opacity="1" xml:space="default" /><stop offset="69%" stop-color="#6A1550" stop-opacity="1" xml:space="default" /><stop offset="77%" stop-color="#8B0B49" stop-opacity="1" xml:space="default" /><stop offset="82%" stop-color="#A50343" stop-opacity="1" xml:space="default" /><stop offset="94%" stop-color="#D10521" stop-opacity="1" xml:space="default" /><stop offset="100%" stop-color="#E30613" stop-opacity="1" xml:space="default" /></linearGradient><linearGradient x1="50%" y1="15.16129%" x2="50%" y2="78.58561%" gradientUnits="objectBoundingBox" id="linearGradient-4" xml:space="default"><stop offset="0%" stop-color="#5D1953" stop-opacity="1" xml:space="default" /><stop offset="26%" stop-color="#A50343" stop-opacity="1" xml:space="default" /><stop offset="41%" stop-color="#C30D24" stop-opacity="1" xml:space="default" /><stop offset="50%" stop-color="#D11116" stop-opacity="1" xml:space="default" /><stop offset="63%" stop-color="#B70931" stop-opacity="1" xml:space="default" /><stop offset="75%" stop-color="#A50343" stop-opacity="1" xml:space="default" /><stop offset="90%" stop-color="#76114D" stop-opacity="1" xml:space="default" /><stop offset="100%" stop-color="#5D1953" stop-opacity="1" xml:space="default" /></linearGradient><linearGradient x1="98.54707%" y1="49.922%" x2="-1.088677%" y2="49.922%" gradientUnits="objectBoundingBox" id="linearGradient-5" xml:space="default"><stop offset="0%" stop-color="#E30613" stop-opacity="1" xml:space="default" /><stop offset="16%" stop-color="#D20520" stop-opacity="1" xml:space="default" /><stop offset="49%" stop-color="#A70341" stop-opacity="1" xml:space="default" /><stop offset="50%" stop-color="#A50343" stop-opacity="1" xml:space="default" /><stop offset="55%" stop-color="#9B0645" stop-opacity="1" xml:space="default" /><stop offset="74%" stop-color="#79104D" stop-opacity="1" xml:space="default" /><stop offset="90%" stop-color="#651751" stop-opacity="1" xml:space="default" /><stop offset="100%" stop-color="#5D1953" stop-opacity="1" xml:space="default" /></linearGradient></defs><g fill-rule="evenOdd" id="Page-1" xml:space="default" style="fill:none;"><g transform="translate(0, -27)" id="Artboard" xml:space="default"><g transform="translate(0, 27)" id="UralBank" xml:space="default"><path d="M15.13877 39.20538 C9.970798 39.01414 5.849295 34.55914 5.762001 29.06987 L5.762001 8.569258 C5.762001 7.210597 6.799428 6.109184 8.079159 6.109184 C4.679425 6.107031 1.562664 8.119 0 11.32454 L0 29.06987 L0 29.29948 C3.014396 35.23829 8.786982 39.01552 15.13877 39.20538 z" id="Shape" xml:space="default" style="fill:url(#linearGradient-1);" /><path d="M8.071435 6.117384 L13.79482 6.117384 C15.38595 6.117384 16.67582 4.747961 16.67582 3.058692 C16.67582 1.369423 15.38595 1.034379E-16 13.79482 0 L8.071435 0 C3.61547 0.004520592 0.004257973 3.838461 0 8.569258 L0 11.32454 C1.563497 8.124798 4.676166 6.11671 8.071435 6.117384 z" id="Shape#1" xml:space="default" style="fill:url(#linearGradient-2);" /><path d="M52.29827 10.88173 C51.24093 4.630732 46.14584 0.06153888 40.16408 0 L25.53509 0 L25.53509 29.06987 C25.4378 34.76817 21.01606 39.30859 15.64854 39.22178 L15.13105 39.22178 C8.777159 39.02406 3.00699 35.23711 0 29.29128 C0.2188227 38.27727 7.182086 45.41823 15.64854 45.33916 C24.19945 45.42571 31.20299 38.14794 31.30481 29.06987 L31.30481 6.109184 L40.64296 6.109184 C44.94848 6.125299 49.09761 7.824261 52.29827 10.88173 z" id="Shape#2" xml:space="default" style="fill:url(#linearGradient-3);" /><path d="M56.73176 29.52089 C56.6798 25.09369 54.87082 20.89526 51.74987 17.95854 C52.51065 15.69011 52.68926 13.24763 52.26737 10.88173 C49.07351 7.834746 44.9368 6.139287 40.64296 6.117384 L40.32628 6.117384 C43.97017 6.290017 46.82244 9.510889 46.76026 13.3828 C46.75927 13.86448 46.71531 14.34497 46.62895 14.81785 C46.45651 15.75945 46.11283 16.65634 45.61713 17.45832 C44.75978 18.90157 44.97605 20.49242 46.29683 21.29604 C47.14887 21.784 47.91882 22.41856 48.57537 23.1739 C50.12317 24.96247 50.97826 27.30526 50.96976 29.73409 C51.02552 34.50428 47.70318 38.56062 43.2459 39.16438 C49.13037 39.02535 54.39878 35.25801 56.73176 29.52089 z" id="Shape#3" xml:space="default" style="fill:url(#linearGradient-4);" /><path d="M43.25362 39.15618 C42.94074 39.19349 42.62617 39.21265 42.31131 39.21358 L33.01178 39.21358 C31.41852 39.21358 30.12692 40.58484 30.12692 42.27637 C30.12692 43.9679 31.41852 45.33916 33.01178 45.33916 L42.33448 45.33916 C50.35381 45.23559 56.78761 38.27305 56.73176 29.7587 L56.73176 29.57009 C54.38379 35.28211 49.12252 39.0241 43.25362 39.15618 z" id="Shape#4" xml:space="default" style="fill:url(#linearGradient-5);" /><path d="M80.01148 41.29644 C80.01148 41.49325 80.01148 41.52605 79.74887 41.52605 L78.45126 41.52605 C78.26589 41.52605 78.18865 41.52605 78.18865 41.29644 L78.18865 32.63698 C78.17201 32.45612 78.27415 32.28668 78.43581 32.22697 C79.31509 31.85627 80.25506 31.67508 81.20096 31.69395 C83.56446 31.69395 84.36774 33.334 84.36774 35.31846 C84.36774 37.30292 83.44088 38.92657 81.43267 38.92657 C80.95744 38.93252 80.48315 38.88024 80.0192 38.77077 L80.01148 41.29644 z M80.96152 33.3586 C80.64023 33.36487 80.32099 33.41447 80.01148 33.50621 L80.01148 37.13072 C80.34887 37.22799 80.69687 37.27762 81.04648 37.27832 C81.88838 37.27832 82.45995 36.73711 82.45995 35.28566 C82.45995 33.83422 81.87293 33.3586 80.96152 33.3586 z" id="Shape#5" xml:space="default" style="fill:#1D1D1B;" /><path d="M91.75175 34.67064 C91.75175 35.58907 91.40417 35.86788 90.81716 35.86788 L87.61176 35.86788 C87.61176 36.99951 88.27602 37.32752 89.11019 37.32752 C89.60419 37.31463 90.09151 37.20337 90.54683 36.99951 C90.74765 36.93391 90.79399 36.94211 90.86351 37.08971 L91.26515 38.04914 C91.32694 38.20495 91.26515 38.28695 91.14929 38.36895 C90.47393 38.77494 89.70853 38.98162 88.93254 38.96757 C86.75441 38.96757 85.71941 37.85234 85.71941 35.36766 C85.71941 33.03059 86.93206 31.67755 88.80896 31.67755 C90.68586 31.67755 91.75175 32.74358 91.75175 34.67064 z M87.65038 34.67064 L89.96754 34.67064 C89.96754 33.85062 89.7281 33.3012 88.83986 33.3012 C88.17652 33.34418 87.65725 33.92412 87.65038 34.62964 L87.65038 34.67064 z" id="Shape#6" xml:space="default" style="fill:#1D1D1B;" /><path d="M94.90308 38.81177 L93.53596 38.81177 C93.38921 38.81177 93.31197 38.81177 93.31197 38.59856 L93.31197 32.03836 C93.31197 31.84976 93.38921 31.82516 93.53596 31.82516 L94.90308 31.82516 C95.06529 31.82516 95.12708 31.82516 95.12708 32.03836 L95.12708 34.35083 L95.7141 34.35083 C96.15435 34.35083 96.5251 34.20323 96.74909 33.46521 L97.18935 32.00556 C97.20526 31.89522 97.30139 31.81868 97.40562 31.83336 L98.79591 31.83336 C98.95811 31.83336 98.95811 31.98096 98.94267 32.06297 L98.47923 33.80142 C98.39345 34.3404 98.06036 34.79858 97.59099 35.02325 C98.15246 35.15557 98.57922 35.64125 98.66461 36.24509 L99.30569 38.54116 C99.30569 38.62316 99.30569 38.77896 99.14349 38.77896 L97.70685 38.77896 C97.60844 38.79075 97.51662 38.72461 97.49058 38.62316 L96.90356 36.5813 C96.77701 36.08888 96.33073 35.76836 95.85312 35.82688 L95.14252 35.82688 L95.14252 38.57396 C95.12708 38.78717 95.06529 38.81177 94.90308 38.81177 z" id="Shape#7" xml:space="default" style="fill:#1D1D1B;" /><path d="M103.6233 38.95937 C101.4606 38.95937 100.5338 37.61453 100.5338 35.31846 C100.5338 33.02239 101.7233 31.66935 103.6851 31.66935 C105.7706 31.66935 106.8519 33.0388 106.8519 35.29386 C106.8519 37.54893 105.7551 38.95937 103.6233 38.95937 z M103.6697 33.3012 C102.7969 33.3012 102.3721 34.12123 102.3721 35.29386 C102.3721 36.4665 102.7351 37.32752 103.6311 37.32752 C104.527 37.32752 104.9209 36.4501 104.9209 35.33486 C104.9209 34.21963 104.6043 33.3012 103.6697 33.3012 z" id="Shape#8" xml:space="default" style="fill:#1D1D1B;" /><path d="M109.9414 38.81177 L108.6902 38.81177 C108.5048 38.81177 108.4121 38.74617 108.4121 38.54936 L108.4121 32.09576 C108.4121 31.90716 108.4971 31.84156 108.6902 31.84156 L109.9414 31.84156 C110.1809 31.84156 110.2272 31.84156 110.2272 32.09576 L110.2272 34.36723 L112.5444 34.36723 L112.5444 32.09576 C112.5444 31.90716 112.6216 31.84156 112.8224 31.84156 L114.0737 31.84156 C114.3131 31.84156 114.3518 31.84156 114.3518 32.09576 L114.3518 38.54116 C114.3518 38.77077 114.3518 38.80357 114.0737 38.80357 L112.8456 38.80357 C112.6448 38.80357 112.5676 38.73796 112.5676 38.54116 L112.5676 35.87608 L110.2504 35.87608 L110.2504 38.54116 C110.235 38.77896 110.1809 38.81177 109.9414 38.81177 z" id="Shape#9" xml:space="default" style="fill:#1D1D1B;" /><path d="M120.7085 36.90111 C120.9248 36.81911 120.9711 36.81911 121.0329 37.02411 L121.3805 38.01634 C121.4577 38.18855 121.4654 38.27875 121.2955 38.38535 C120.5754 38.76093 119.7805 38.94659 118.9784 38.92657 C117.0242 38.92657 115.9738 37.70473 115.9738 35.31026 C115.9738 32.91579 117.171 31.63655 119.0633 31.63655 C119.7457 31.63051 120.4208 31.78451 121.0406 32.08757 C121.2569 32.19417 121.2646 32.24337 121.1797 32.45658 L120.8321 33.48161 C120.7549 33.67841 120.6699 33.67021 120.4459 33.60461 C120.0478 33.45895 119.631 33.37876 119.2101 33.3668 C118.2214 33.3668 117.8507 34.26883 117.8507 35.31846 C117.8507 36.3681 118.1519 37.20452 119.2487 37.20452 C119.7484 37.19567 120.2426 37.09295 120.7085 36.90111 z" id="Shape#10" xml:space="default" style="fill:#1D1D1B;" /><path d="M126.0148 33.40781 L126.0148 38.54116 C126.0148 38.77077 125.9685 38.80357 125.729 38.80357 L124.4932 38.80357 C124.2769 38.80357 124.2074 38.73796 124.2074 38.54116 L124.2074 33.40781 L122.4309 33.40781 C122.2456 33.40781 122.1838 33.3176 122.1838 33.11259 L122.1838 32.15317 C122.1838 31.91536 122.1838 31.84976 122.4309 31.84976 L127.8376 31.84976 C128.0385 31.84976 128.0848 31.91536 128.0848 32.15317 L128.0848 33.1208 C128.0848 33.3176 128.023 33.416 127.8376 33.416 L126.0148 33.40781 z" id="Shape#11" xml:space="default" style="fill:#1D1D1B;" /><path d="M131.0739 41.29644 C131.0739 41.49325 131.0739 41.52605 130.8113 41.52605 L129.5137 41.52605 C129.3283 41.52605 129.2511 41.52605 129.2511 41.29644 L129.2511 32.63698 C129.2345 32.45612 129.3366 32.28668 129.4983 32.22697 C130.3775 31.85627 131.3175 31.67508 132.2634 31.69395 C134.6269 31.69395 135.4302 33.334 135.4302 35.31846 C135.4302 37.30292 134.5033 38.92657 132.4951 38.92657 C132.0199 38.93252 131.5456 38.88024 131.0816 38.77077 L131.0739 41.29644 z M132.024 33.3586 C131.7027 33.36478 131.3834 33.41439 131.0739 33.50621 L131.0739 37.13072 C131.4113 37.22809 131.7593 37.27772 132.1089 37.27832 C132.9508 37.27832 133.5224 36.73711 133.5224 35.28566 C133.5224 33.83422 132.9663 33.3586 132.024 33.3586 z" id="Shape#12" xml:space="default" style="fill:#1D1D1B;" /><path d="M140.5743 39.968 C140.3318 41.05201 139.3707 41.77783 138.3266 41.66545 C137.9082 41.66767 137.4917 41.60411 137.0908 41.47685 C136.89 41.42765 136.8437 41.37024 136.89 41.18164 L137.0985 40.18121 C137.1449 39.968 137.199 39.9844 137.3766 40.0254 C137.5773 40.06977 137.7818 40.09176 137.9868 40.09101 C138.5738 40.09101 138.875 39.9434 139.0604 39.32018 L139.2844 38.60676 L138.9214 38.60676 C138.5429 38.60676 138.4193 38.51656 138.2726 38.03275 L136.3725 32.13676 C136.3107 31.94816 136.3725 31.88256 136.5347 31.88256 L137.9945 31.88256 C138.2417 31.88256 138.3035 31.88256 138.3575 32.12037 L139.0681 34.80185 L139.6551 37.11432 L139.7324 37.11432 L140.3735 34.76085 L141.1458 32.14497 C141.1922 31.94816 141.2463 31.88256 141.4934 31.88256 L142.9841 31.88256 C143.1232 31.88256 143.1695 31.96456 143.1232 32.09576 L140.5743 39.9844 L140.5743 39.968 z" id="Shape#13" xml:space="default" style="fill:#1D1D1B;" /><path d="M145.8497 38.81177 L144.4826 38.81177 C144.3358 38.81177 144.2586 38.81177 144.2586 38.59856 L144.2586 32.03836 C144.2586 31.84976 144.3358 31.82516 144.4826 31.82516 L145.8497 31.82516 C146.0119 31.82516 146.0737 31.82516 146.0737 32.03836 L146.0737 34.35083 L146.6607 34.35083 C147.1009 34.35083 147.4717 34.20323 147.6957 33.46521 L148.1437 31.98096 C148.1596 31.87062 148.2557 31.79408 148.3599 31.80876 L149.7502 31.80876 C149.9124 31.80876 149.9124 31.95636 149.897 32.03836 L149.4335 33.77682 C149.3478 34.3158 149.0147 34.77398 148.5453 34.99865 C149.1068 35.13097 149.5335 35.61665 149.6189 36.22049 L150.26 38.51656 C150.26 38.59856 150.26 38.75436 150.0978 38.75436 L148.6612 38.75436 C148.5627 38.76615 148.4709 38.70001 148.4449 38.59856 L147.8579 36.5567 C147.7313 36.06428 147.285 35.74376 146.8074 35.80228 L146.0968 35.80228 L146.0968 38.54936 C146.0814 38.78717 145.981 38.81177 145.8497 38.81177 z" id="Shape#14" xml:space="default" style="fill:#1D1D1B;" /><path d="M157.6826 37.26192 L158.2697 37.31112 C158.6172 37.31112 158.679 37.56533 158.6713 37.84414 L158.5323 40.65682 C158.5403 40.71119 158.5234 40.76636 158.4867 40.80527 C158.4501 40.84418 158.3981 40.86216 158.3469 40.85363 L157.2346 40.85363 C157.0879 40.85363 157.0493 40.78802 157.0338 40.64042 L156.972 38.80357 L152.4304 38.80357 C151.8434 38.80357 151.658 38.45916 151.658 37.98354 L151.658 32.08757 C151.658 31.91536 151.743 31.84976 151.9206 31.84976 L153.2182 31.84976 C153.4422 31.84976 153.4654 31.84976 153.4654 32.08757 L153.4654 37.27832 L155.7826 37.27832 L155.7826 32.08757 C155.7826 31.91536 155.8598 31.84976 156.0452 31.84976 L157.3582 31.84976 C157.5591 31.84976 157.6054 31.84976 157.6054 32.08757 L157.6826 37.26192 z" id="Shape#15" xml:space="default" style="fill:#1D1D1B;" /><path d="M160.0461 32.05476 C160.0461 31.89896 160.1079 31.84156 160.2701 31.84156 L161.6064 31.84156 C161.8072 31.84156 161.8458 31.84156 161.8458 32.05476 L161.8458 36.15489 L161.9076 36.15489 C162.5564 35.01505 162.68 34.80185 162.8808 34.45744 C163.1975 33.94082 163.5837 33.2602 164.1321 32.31717 C164.2801 32.01668 164.5871 31.84393 164.9044 31.88256 L165.5146 31.88256 C165.9781 31.88256 166.2175 32.03836 166.2175 32.62878 L166.2175 38.63956 C166.2175 38.81177 166.1557 38.85277 165.9935 38.85277 L164.6418 38.85277 C164.4565 38.85277 164.4024 38.85277 164.4024 38.63956 L164.4024 34.62144 L164.3406 34.62144 C163.9621 35.23646 163.63 35.85968 163.267 36.4583 C162.904 37.05692 162.4946 37.74574 162.1084 38.38535 C161.9604 38.68585 161.6534 38.85859 161.336 38.81997 L160.749 38.81997 C160.1774 38.81997 160.0461 38.56576 160.0461 38.07375 L160.0461 32.05476 z" id="Shape#16" xml:space="default" style="fill:#1D1D1B;" /><path d="M168.0944 32.05476 C168.0944 31.89896 168.1562 31.84156 168.3184 31.84156 L169.6546 31.84156 C169.8554 31.84156 169.8941 31.84156 169.8941 32.05476 L169.8941 36.15489 L169.925 36.15489 C170.5738 35.01505 170.6973 34.80185 170.8982 34.45744 C171.2148 33.94082 171.601 33.2602 172.1494 32.31717 C172.2975 32.01668 172.6045 31.84393 172.9218 31.88256 L173.532 31.88256 C173.9954 31.88256 174.2349 32.03836 174.2349 32.62878 L174.2349 38.63956 C174.2349 38.81177 174.1731 38.85277 174.0109 38.85277 L172.6592 38.85277 C172.4738 38.85277 172.4198 38.85277 172.4198 38.63956 L172.4198 34.62144 L172.358 34.62144 C171.9795 35.23646 171.6474 35.85968 171.2843 36.4583 C170.9213 37.05692 170.512 37.74574 170.1181 38.38535 C169.9808 38.69698 169.6656 38.87432 169.3457 38.81997 L168.7587 38.81997 C168.1794 38.81997 168.0558 38.56576 168.0558 38.07375 L168.0944 32.05476 z" id="Shape#17" xml:space="default" style="fill:#1D1D1B;" /><path d="M179.966 32.05476 C179.966 31.89896 180.0278 31.84156 180.19 31.84156 L181.5107 31.84156 C181.7116 31.84156 181.7502 31.84156 181.7502 32.05476 L181.7502 36.15489 L181.812 36.15489 C182.4608 35.01505 182.5844 34.80185 182.7852 34.45744 C183.1019 33.94082 183.4881 33.2602 184.0365 32.31717 C184.1845 32.01668 184.4915 31.84393 184.8088 31.88256 L185.419 31.88256 C185.8824 31.88256 186.1219 32.03836 186.1219 32.62878 L186.1219 38.63956 C186.1219 38.81177 186.0601 38.85277 185.8979 38.85277 L184.6003 38.85277 C184.4149 38.85277 184.3609 38.85277 184.3609 38.63956 L184.3609 34.62144 L184.2991 34.62144 C183.9206 35.23646 183.5885 35.85968 183.2254 36.4583 C182.8624 37.05692 182.4531 37.74574 182.0669 38.38535 C181.9188 38.68585 181.6118 38.85859 181.2945 38.81997 L180.7075 38.81997 C180.1359 38.81997 180.0046 38.56576 180.0046 38.07375 L179.966 32.05476 z" id="Shape#18" xml:space="default" style="fill:#1D1D1B;" /><path d="M193.6758 41.29644 C193.6758 41.49325 193.6758 41.52605 193.4132 41.52605 L192.1156 41.52605 C191.9302 41.52605 191.853 41.52605 191.853 41.29644 L191.853 32.63698 C191.8364 32.45612 191.9385 32.28668 192.1002 32.22697 C192.9794 31.85606 193.9194 31.67486 194.8653 31.69395 C197.2288 31.69395 198.0321 33.334 198.0321 35.31846 C198.0321 37.30292 197.1052 38.92657 195.097 38.92657 C194.6218 38.93252 194.1475 38.88024 193.6835 38.77077 L193.6758 41.29644 z M194.6413 33.3586 C194.32 33.36496 194.0008 33.41456 193.6913 33.50621 L193.6913 37.13072 C194.0287 37.22799 194.3767 37.27762 194.7263 37.27832 C195.5605 37.27832 196.1397 36.73711 196.1397 35.28566 C196.1397 33.83422 195.5682 33.3586 194.6413 33.3586 z" id="Shape#19" xml:space="default" style="fill:#1D1D1B;" /><path d="M204.9527 38.46736 C204.1094 38.81771 203.2086 38.98501 202.3034 38.95937 C200.0557 38.95937 199.3915 37.99174 199.3915 36.7453 C199.3915 35.49887 200.2411 34.36723 202.0331 34.36723 L203.4079 34.36723 L203.4079 34.15403 C203.4079 33.66201 203.2457 33.211 202.3188 33.211 C201.7248 33.22718 201.1343 33.31243 200.5578 33.46521 C200.3415 33.51441 200.2797 33.46521 200.2411 33.293 L200.048 32.35817 C199.9939 32.16957 200.048 32.10397 200.1716 32.05476 C200.9483 31.77961 201.7627 31.64381 202.5814 31.65295 C204.3811 31.65295 205.223 32.47298 205.223 34.11303 L205.223 37.96714 C205.2466 38.17891 205.1368 38.38209 204.9527 38.46736 z M203.4079 35.65467 L202.3652 35.65467 C201.9017 35.65467 201.2298 35.74488 201.2298 36.5977 C201.2298 37.20452 201.6546 37.41772 202.3188 37.41772 C202.6699 37.41458 203.0187 37.35655 203.3538 37.24552 L203.4079 35.65467 z" id="Shape#20" xml:space="default" style="fill:#1D1D1B;" /><path d="M207.5402 33.57181 C207.3393 33.65381 207.2776 33.57181 207.2235 33.48981 L206.9223 32.60418 C206.8373 32.39098 206.8218 32.30897 207.0227 32.23517 C207.7774 31.87337 208.5967 31.68876 209.4248 31.69395 C210.9696 31.69395 211.9659 32.29257 211.9659 33.56361 C211.9302 34.21625 211.5676 34.79842 211.0159 35.08886 L211.0159 35.13806 C211.6931 35.32765 212.1654 35.97718 212.1667 36.7207 C212.1667 38.22135 210.8151 38.95117 209.2162 38.95117 C208.359 38.96761 207.5068 38.80893 206.706 38.48376 C206.5206 38.39355 206.5438 38.28695 206.5824 38.15575 L206.9068 37.18812 C206.9532 37.05692 207.0227 37.01591 207.2467 37.08152 C207.8259 37.26929 208.4256 37.37678 209.0309 37.40133 C210.0041 37.40133 210.3285 36.97491 210.3285 36.5403 C210.3285 36.10569 209.9191 35.82688 208.8918 35.81048 C208.5829 35.81048 208.413 35.68747 208.413 35.38406 L208.413 34.98225 C208.413 34.67884 208.5983 34.58044 208.8996 34.57224 C209.726 34.51484 210.0968 34.27703 210.0968 33.86702 C210.0968 33.457 209.6565 33.2848 209.0618 33.2848 C208.5455 33.3145 208.0345 33.41087 207.5402 33.57181 z" id="Shape#21" xml:space="default" style="fill:#1D1D1B;" /><path d="M218.7089 35.01505 C219.3568 35.25828 219.7755 35.92668 219.7361 36.6551 C219.7361 37.94254 218.7089 38.80357 217.334 38.80357 L214.4453 38.80357 C213.8583 38.80357 213.6729 38.58216 213.6729 38.12295 L213.6729 32.58778 C213.6729 32.13676 213.7965 31.84156 214.3758 31.84156 L217.2877 31.84156 C218.4617 31.84156 219.4272 32.30897 219.4272 33.60461 C219.4172 34.16384 219.1212 34.67293 218.6548 34.93305 L218.7089 35.01505 z M215.4957 34.44104 L217.0405 34.44104 C217.1905 34.45295 217.3381 34.39603 217.4459 34.28471 C217.5537 34.17338 217.6114 34.01832 217.6044 33.85882 C217.6135 33.70815 217.5612 33.56058 217.4606 33.45382 C217.36 33.34706 217.221 33.29145 217.0791 33.3012 L215.5344 33.3012 L215.4957 34.44104 z M217.0405 35.74488 L215.4957 35.74488 L215.4957 37.31112 L217.0405 37.31112 C217.25 37.3286 217.4561 37.24783 217.6047 37.0901 C217.7533 36.93237 217.8294 36.71348 217.8129 36.4911 C217.819 36.27801 217.737 36.07276 217.5885 35.92928 C217.4399 35.7858 217.2398 35.71843 217.0405 35.74488 z" id="Shape#22" xml:space="default" style="fill:#1D1D1B;" /><path d="M221.3427 32.05476 C221.3427 31.89896 221.4045 31.84156 221.5667 31.84156 L222.9029 31.84156 C223.1037 31.84156 223.1424 31.84156 223.1424 32.05476 L223.1424 36.15489 L223.2196 36.15489 C223.8684 35.01505 223.992 34.80185 224.1928 34.45744 C224.5018 33.94082 224.8957 33.2602 225.4441 32.31717 C225.5921 32.01668 225.8991 31.84393 226.2165 31.88256 L226.8266 31.88256 C227.2901 31.88256 227.5295 32.03836 227.5295 32.62878 L227.5295 38.63956 C227.5295 38.81177 227.4677 38.85277 227.3055 38.85277 L225.9538 38.85277 C225.7685 38.85277 225.7144 38.85277 225.7144 38.63956 L225.7144 34.62144 L225.6526 34.62144 C225.2742 35.23646 224.942 35.85968 224.579 36.4583 C224.216 37.05692 223.8066 37.74574 223.4127 38.38535 C223.2754 38.69698 222.9603 38.87432 222.6403 38.81997 L222.0533 38.81997 C221.474 38.81997 221.3504 38.56576 221.3504 38.07375 L221.3427 32.05476 z" id="Shape#23" xml:space="default" style="fill:#1D1D1B;" /><path d="M232.55 33.40781 L232.55 38.54116 C232.55 38.77077 232.5037 38.80357 232.2642 38.80357 L231.0284 38.80357 C230.8199 38.80357 230.7426 38.73796 230.7426 38.54116 L230.7426 33.40781 L228.9662 33.40781 C228.7808 33.40781 228.719 33.3176 228.719 33.11259 L228.719 32.15317 C228.719 31.91536 228.719 31.84976 228.9662 31.84976 L234.3729 31.84976 C234.5737 31.84976 234.62 31.91536 234.62 32.15317 L234.62 33.1208 C234.62 33.3176 234.5582 33.416 234.3729 33.416 L232.55 33.40781 z" id="Shape#24" xml:space="default" style="fill:#1D1D1B;" /><path d="M235.7863 32.05476 C235.7863 31.89896 235.8481 31.84156 236.0103 31.84156 L237.3465 31.84156 C237.5474 31.84156 237.586 31.84156 237.586 32.05476 L237.586 36.15489 L237.6478 36.15489 C238.2966 35.01505 238.4202 34.80185 238.621 34.45744 C238.9299 33.94082 239.3239 33.2602 239.8723 32.31717 C240.0203 32.01668 240.3273 31.84393 240.6446 31.88256 L241.2548 31.88256 C241.7182 31.88256 241.9577 32.03836 241.9577 32.62878 L241.9577 38.63956 C241.9577 38.81177 241.8959 38.85277 241.7337 38.85277 L240.382 38.85277 C240.1967 38.85277 240.1426 38.85277 240.1426 38.63956 L240.1426 34.62144 L240.0808 34.62144 C239.7023 35.23646 239.3702 35.85968 239.0072 36.4583 C238.6441 37.05692 238.2348 37.74574 237.8409 38.38535 C237.7036 38.69698 237.3885 38.87432 237.0685 38.81997 L236.4815 38.81997 C235.9022 38.81997 235.7786 38.56576 235.7786 38.07375 L235.7863 32.05476 z" id="Shape#25" xml:space="default" style="fill:#1D1D1B;" /><path d="M247.8124 36.17129 L246.8392 36.17129 C246.2599 36.17129 245.8891 36.31889 245.7115 36.99131 C245.5338 37.66373 245.4102 38.04094 245.2635 38.57396 C245.2017 38.82817 245.0163 38.85277 244.8541 38.85277 L243.6029 38.85277 C243.4638 38.85277 243.4175 38.80357 243.4175 38.72157 L243.4175 38.66416 C243.4128 38.64815 243.4128 38.63097 243.4175 38.61496 C243.5952 38.01634 243.7805 37.40953 243.9659 36.81091 C244.0717 36.29183 244.446 35.88165 244.9314 35.75307 C244.2012 35.54054 243.7238 34.79752 243.8037 33.99822 C243.8037 32.81739 244.6688 31.91536 246.0822 31.91536 L248.886 31.91536 C249.3262 31.91536 249.5502 32.11217 249.5889 32.43198 L249.5889 32.90759 L249.5889 38.64776 C249.5889 38.80357 249.5116 38.86097 249.3417 38.86097 L248.0518 38.86097 C247.8355 38.86097 247.8047 38.81177 247.8047 38.64776 L247.8124 36.17129 z M246.5148 34.88385 L247.8124 34.88385 L247.8124 33.3176 L246.4762 33.3176 C246.2583 33.29435 246.0414 33.37037 245.8793 33.52674 C245.7173 33.68312 245.6254 33.90516 245.6265 34.13763 C245.6188 34.58044 245.9123 34.88385 246.5148 34.88385 z" id="Shape#26" xml:space="default" style="fill:#1D1D1B;" /><path d="M90.36918 6.174786 C90.62407 6.174786 90.71675 6.33879 90.62407 6.560197 L86.20602 19.58219 C85.43363 21.89466 84.22099 22.67368 82.00424 22.67368 C81.30289 22.68007 80.60478 22.57221 79.93424 22.35387 C79.57122 22.23907 79.47854 22.17347 79.54805 21.85366 L79.89562 19.9512 C79.95741 19.60679 80.06555 19.65599 80.38995 19.69699 C80.78387 19.75746 81.1814 19.78761 81.57943 19.7872 C82.55264 19.7872 83.00062 19.67239 83.34819 18.63916 L83.69576 17.60593 L83.13192 17.60593 C82.4445 17.60593 82.22823 17.44193 81.927 16.6219 L78.13458 6.609399 C78.00328 6.31419 78.18093 6.174786 78.43581 6.174786 L80.93835 6.174786 C81.43267 6.174786 81.54081 6.264988 81.64894 6.633999 L83.24778 11.28354 L84.45271 15.06385 L84.60718 15.06385 L85.73486 11.09493 L87.09426 6.6504 C87.22557 6.264988 87.31053 6.166585 87.76624 6.166585 L90.36918 6.174786 z" id="Shape#27" xml:space="default" style="fill:#1D1D1B;" /><path d="M94.54007 26.5442 C94.54007 26.88861 94.47827 26.92961 94.08436 26.92961 L91.84444 26.92961 C91.52003 26.92961 91.38873 26.86401 91.38873 26.5442 L91.38873 11.61975 C91.35858 11.30396 91.53804 11.00796 91.82127 10.90633 C93.3368 10.26798 94.95673 9.955792 96.58689 9.987901 C100.6651 9.987901 102.0399 12.75958 102.0399 16.23649 C102.0399 19.71339 100.4102 22.46868 96.97308 22.46868 C96.15468 22.47529 95.33829 22.38173 94.54007 22.18987 L94.54007 26.5442 z M96.17753 12.85799 C95.62376 12.8687 95.07353 12.95413 94.54007 13.11219 L94.54007 19.36078 C95.12428 19.52862 95.72677 19.61409 96.332 19.61499 C97.77637 19.61499 98.76501 18.68016 98.76501 16.17909 C98.76501 13.67801 97.79954 12.85799 96.17753 12.85799 z" id="Shape#28" xml:space="default" style="fill:#1D1D1B;" /><path d="M113.7725 21.67325 C112.3153 22.26835 110.7604 22.54719 109.2 22.49328 C105.338 22.49328 104.1794 20.85323 104.1794 18.67196 C104.1794 16.31849 105.647 14.57184 108.7288 14.57184 L111.1 14.57184 L111.1 14.20283 C111.1 13.3828 110.822 12.56278 109.2231 12.56278 C108.1968 12.58838 107.1762 12.73413 106.1799 12.99739 C105.8169 13.08759 105.7088 12.99739 105.6393 12.70218 L105.2917 11.06213 C105.2067 10.74232 105.2917 10.62752 105.5079 10.53732 C106.8501 10.06407 108.257 9.831281 109.6711 9.848496 C112.7607 9.848496 114.2205 11.29174 114.2205 14.06342 L114.2205 20.69742 C114.3243 21.0961 114.1323 21.51449 113.7725 21.67325 z M111.0769 16.81871 L109.3699 16.81871 C108.5975 16.81871 107.408 16.98271 107.408 18.45876 C107.408 19.50839 108.1418 19.902 109.2849 19.902 C109.8927 19.89769 110.4965 19.79822 111.0769 19.60679 L111.0769 16.81871 z" id="Shape#29" xml:space="default" style="fill:#1D1D1B;" /><path d="M125.9685 10.25031 C126.9803 10.25031 127.2583 10.68492 127.2583 11.64435 L127.2583 21.82906 C127.2583 22.19807 127.1502 22.26367 126.764 22.26367 L124.5859 22.26367 C124.1997 22.26367 124.0916 22.14887 124.0916 21.80446 L124.0916 12.94819 L121.4423 12.94819 L121.3805 14.13723 C121.0793 19.46739 120.7085 21.64045 117.3486 22.73928 C116.9624 22.87869 116.808 22.73928 116.6998 22.46868 L116.1205 20.91063 C115.9892 20.52522 115.9892 20.41041 116.36 20.19721 C117.9047 19.44279 118.1905 18.72936 118.4763 14.08802 L118.6308 11.62795 C118.6771 10.61932 119.017 10.27491 119.967 10.27491 L125.9685 10.25031 z" id="Shape#30" xml:space="default" style="fill:#1D1D1B;" /><path d="M131.6146 22.26367 C130.4946 22.26367 130.2552 21.76345 130.2552 20.93523 L130.2552 10.66032 C130.2552 10.34051 130.4097 10.22571 130.7264 10.22571 L132.8813 10.22571 C133.2907 10.22571 133.3756 10.29131 133.3756 10.66032 L133.3756 13.94042 L136.0481 13.94042 C140.2731 13.94042 140.6438 16.85151 140.6438 18.04054 C140.6143 19.1939 140.1458 20.28534 139.3453 21.06568 C138.5448 21.84602 137.4806 22.24866 136.3957 22.18167 L131.6146 22.26367 z M135.9245 16.5235 L133.3834 16.5235 L133.3834 19.68059 L135.94 19.68059 C136.3502 19.71922 136.756 19.56702 137.0524 19.26339 C137.3488 18.95977 137.5065 18.53458 137.4847 18.09794 C137.5102 17.66228 137.3528 17.23699 137.0547 16.93635 C136.7566 16.63571 136.3485 16.49056 135.94 16.5399 L135.9245 16.5235 z" id="Shape#31" xml:space="default" style="fill:#1D1D1B;" /><path d="M150.7621 19.01637 C151.1251 18.87697 151.2178 18.87697 151.3259 19.22138 L151.9284 20.93523 C152.0597 21.23044 152.0828 21.39444 151.7739 21.57485 C150.5353 22.22163 149.1683 22.54227 147.7884 22.50968 C144.4285 22.50968 142.6134 20.40221 142.6134 16.28569 C142.6134 12.37417 144.6834 9.946899 148.0201 9.946899 C149.1955 9.939125 150.3582 10.20504 151.4263 10.72592 C151.7893 10.90633 151.8125 11.00473 151.6657 11.36554 L151.0169 13.12039 C150.8856 13.4648 150.7389 13.4402 150.345 13.3254 C149.6583 13.07385 148.9393 12.93557 148.2132 12.91539 C146.5062 12.91539 145.896 14.47344 145.896 16.27749 C145.896 18.08154 146.4135 19.55759 148.3136 19.55759 C149.153 19.52792 149.9813 19.34483 150.7621 19.01637 z" id="Shape#32" xml:space="default" style="fill:#1D1D1B;" /><path d="M156.9875 22.26367 L154.6703 22.26367 C154.4077 22.26367 154.2841 22.21447 154.2841 21.89466 L154.2841 10.61932 C154.2841 10.29951 154.4154 10.25031 154.6703 10.25031 L156.9875 10.25031 C157.2655 10.25031 157.3737 10.29951 157.3737 10.61932 L157.3737 14.59644 L158.3855 14.59644 C159.1579 14.59644 159.7835 14.34223 160.1774 13.06299 L160.9498 10.54552 C160.9776 10.36026 161.1371 10.23053 161.3129 10.25031 L163.7072 10.25031 C163.9853 10.25031 163.9853 10.50452 163.9699 10.63572 L163.1975 13.63701 C163.043 14.56773 162.4646 15.35689 161.6527 15.74447 L161.6527 15.79368 C162.6224 16.02016 163.3599 16.85855 163.5064 17.90114 L164.5182 21.85366 C164.5182 21.99306 164.58 22.26367 164.2402 22.26367 L161.7608 22.26367 C161.5911 22.28057 161.4358 22.16132 161.3978 21.98486 L160.386 18.45876 C160.1727 17.60746 159.4026 17.05191 158.5786 17.15492 L157.3505 17.15492 L157.3505 21.89466 C157.3814 22.22267 157.2733 22.26367 156.9875 22.26367 z" id="Shape#33" xml:space="default" style="fill:#1D1D1B;" /><path d="M166.8354 10.61932 C166.8354 10.34871 166.9435 10.25031 167.2216 10.25031 L169.5388 10.25031 C169.8863 10.25031 169.9481 10.31591 169.9481 10.61932 L169.9481 17.62233 L170.0563 17.62233 C171.1762 15.65427 171.3693 15.28526 171.7401 14.69484 C172.2807 13.80101 172.945 12.63658 173.895 11.01293 C174.1364 10.47751 174.6782 10.17159 175.2312 10.25851 L176.2894 10.25851 C177.0618 10.25851 177.4943 10.52912 177.4943 11.53775 L177.4943 21.90286 C177.4943 22.19807 177.3862 22.27187 177.1082 22.27187 L174.791 22.27187 C174.4666 22.27187 174.3816 22.22267 174.3816 21.90286 L174.3816 15.03105 L174.2735 15.03105 C173.6247 16.08068 173.0454 17.16312 172.4198 18.18815 C171.7941 19.21318 171.1067 20.41041 170.4116 21.46825 C170.1741 22.0076 169.6293 22.3152 169.0753 22.22267 L168.0635 22.22267 C167.0748 22.22267 166.8586 21.78806 166.8586 20.94343 L166.8354 10.61932 z" id="Shape#34" xml:space="default" style="fill:#1D1D1B;" /><path d="M180.5066 10.61932 C180.5066 10.34871 180.6148 10.25031 180.8928 10.25031 L183.21 10.25031 C183.5576 10.25031 183.6194 10.31591 183.6194 10.61932 L183.6194 17.62233 L183.7275 17.62233 C184.8475 15.65427 185.0406 15.28526 185.4113 14.69484 C185.952 13.80101 186.6162 12.63658 187.5663 11.01293 C187.8076 10.47751 188.3494 10.17159 188.9025 10.25851 L189.9606 10.25851 C190.733 10.25851 191.1656 10.52912 191.1656 11.53775 L191.1656 21.90286 C191.1656 22.19807 191.0574 22.27187 190.7794 22.27187 L188.4622 22.27187 C188.1378 22.27187 188.0529 22.22267 188.0529 21.90286 L188.0529 15.03105 L187.9447 15.03105 C187.2959 16.08068 186.7166 17.16312 186.091 18.18815 C185.4654 19.21318 184.7779 20.41041 184.0828 21.46825 C183.8454 22.0076 183.3005 22.3152 182.7466 22.22267 L181.7347 22.22267 C180.7461 22.22267 180.5298 21.78806 180.5298 20.94343 L180.5066 10.61932 z M181.7579 6.478195 C181.6961 6.387992 181.5648 6.207587 181.8197 5.97798 L182.6616 5.108754 C182.9397 4.879147 182.986 4.99395 183.2023 5.174356 C183.8683 6.043016 184.8269 6.601912 185.8747 6.732402 C186.5621 6.732402 187.2573 6.527396 188.609 5.092353 C188.887 4.838146 188.9566 4.911948 189.1033 5.043152 L189.922 5.797575 C190.2001 6.076383 190.092 6.207587 190.007 6.32239 C188.6708 8.200247 187.265 9.094073 185.7357 9.094073 C184.0442 9.126875 182.6616 7.847636 181.7579 6.469995 L181.7579 6.478195 z" id="Shape#35" xml:space="default" style="fill:#1D1D1B;" /><path d="M199.0439 20.89423 L199.0439 7.773834 C199.0439 6.724202 199.3915 6.215787 200.4265 6.215787 L208.83 6.215787 C209.1544 6.215787 209.2162 6.33059 209.2162 6.716002 L209.2162 8.749663 C209.2162 9.069472 209.1313 9.184277 208.83 9.184277 L202.3188 9.184277 L202.3188 12.05436 L205.4547 12.05436 C210.5834 12.05436 210.9309 15.67067 210.9309 17.22872 C210.9309 20.13161 208.6678 22.26367 205.756 22.26367 L200.3492 22.26367 C199.2756 22.26367 199.0439 21.87826 199.0439 20.89423 z M205.4547 14.96545 L202.3034 14.96545 L202.3034 19.22138 L205.3929 19.22138 C205.952 19.26715 206.5025 19.05472 206.9034 18.63851 C207.3043 18.22229 207.5167 17.64274 207.4861 17.04831 C207.5099 16.47542 207.3011 15.91922 206.9125 15.52085 C206.524 15.12248 205.9932 14.92024 205.4547 14.96545 z" id="Shape#36" xml:space="default" style="fill:#1D1D1B;" /><path d="M222.5245 21.67325 C221.0672 22.26835 219.5124 22.54719 217.9519 22.49328 C214.09 22.49328 212.9314 20.85323 212.9314 18.67196 C212.9314 16.31849 214.399 14.57184 217.4808 14.57184 L219.852 14.57184 L219.852 14.20283 C219.852 13.3828 219.5739 12.56278 217.9751 12.56278 C216.9487 12.58838 215.9282 12.73413 214.9319 12.99739 C214.5689 13.08759 214.4607 12.99739 214.3912 12.70218 L214.0437 11.06213 C213.9587 10.74232 214.0437 10.62752 214.2599 10.53732 C215.602 10.06407 217.009 9.831281 218.4231 9.848496 C221.5126 9.848496 222.9724 11.29174 222.9724 14.06342 L222.9724 20.69742 C223.0763 21.0961 222.8842 21.51449 222.5245 21.67325 z M219.8288 16.81871 L218.1219 16.81871 C217.3495 16.81871 216.16 16.98271 216.16 18.45876 C216.16 19.50839 216.8938 19.902 218.0369 19.902 C218.6446 19.89769 219.2484 19.79822 219.8288 19.60679 L219.8288 16.81871 z" id="Shape#37" xml:space="default" style="fill:#1D1D1B;" /><path d="M228.6263 22.26367 L226.4713 22.26367 C226.1469 22.26367 225.9925 22.14887 225.9925 21.80446 L225.9925 10.66032 C225.9925 10.34051 226.1469 10.22571 226.4713 10.22571 L228.6263 10.22571 C229.0357 10.22571 229.1206 10.29131 229.1206 10.66032 L229.1206 14.59644 L233.1525 14.59644 L233.1525 10.66032 C233.1525 10.34051 233.2838 10.22571 233.6236 10.22571 L235.7786 10.22571 C236.188 10.22571 236.2575 10.29131 236.2575 10.66032 L236.2575 21.80446 C236.2575 22.18987 236.1957 22.26367 235.7786 22.26367 L233.6236 22.26367 C233.2761 22.26367 233.1525 22.14887 233.1525 21.80446 L233.1525 17.22052 L229.1206 17.22052 L229.1206 21.82086 C229.0975 22.19807 229.0125 22.26367 228.6263 22.26367 z" id="Shape#38" xml:space="default" style="fill:#1D1D1B;" /><path d="M241.9654 22.26367 L239.6483 22.26367 C239.3856 22.26367 239.2621 22.21447 239.2621 21.89466 L239.2621 10.61932 C239.2621 10.29951 239.3934 10.25031 239.6483 10.25031 L241.9654 10.25031 C242.2435 10.25031 242.3516 10.29951 242.3516 10.61932 L242.3516 14.59644 L243.3634 14.59644 C244.1358 14.59644 244.7614 14.34223 245.1554 13.06299 L245.9277 10.54552 C245.9556 10.35671 246.12 10.22579 246.2985 10.25031 L248.7083 10.25031 C248.9864 10.25031 248.9864 10.50452 248.971 10.63572 L248.1986 13.63701 C248.0441 14.56773 247.4657 15.35689 246.6538 15.74447 L246.6538 15.79368 C247.6235 16.02016 248.361 16.85855 248.5075 17.90114 L249.6043 21.86186 C249.6043 22.00126 249.6661 22.27187 249.3262 22.27187 L246.7774 22.27187 C246.6076 22.28876 246.4524 22.16952 246.4144 21.99306 L245.4025 18.46696 C245.1889 17.61223 244.4142 17.05575 243.5874 17.16312 L242.3593 17.16312 L242.3593 21.90286 C242.3516 22.22267 242.2435 22.26367 241.9654 22.26367 z" id="Shape#39" xml:space="default" style="fill:#1D1D1B;" /></g></g></g></svg>